<svg data-name="Layer 1" id="Layer_1" viewBox="0 0 100 100" xmlns="http://www.w3.org/2000/svg">
<title/>
<path d="M50,5A45,45,0,1,0,94.99994,50,45.00058,45.00058,0,0,0,50,5Zm0,88A43.00045,43.00045,0,1,1,80.40546,80.40546,42.86117,42.86117,0,0,1,50,93Z" fill="green"/>
<path d="M54.99994,45.101V30.856a3.5942,3.5942,0,0,0-1.25214-2.73072,4.13467,4.13467,0,0,0-2.7055-1.002,4.02885,4.02885,0,0,0-2.52668.88434l-.0335.028L33.62506,41H26.5a3.34983,3.34983,0,0,0-2.51819,1.18066A4.06217,4.06217,0,0,0,23,44.85693V55.14307a4.06208,4.06208,0,0,0,.98181,2.6762A3.34981,3.34981,0,0,0,26.5,58.99994h7.12506L48.48212,71.96436l.03363.02807a4.02965,4.02965,0,0,0,2.52649.8841,4.13456,4.13456,0,0,0,2.70544-1.0019A3.59381,3.59381,0,0,0,54.99994,69.144V54.899a5,5,0,0,0,0-9.798Zm-2.567,25.26654a2.14307,2.14307,0,0,1-1.39068.5091,2.02386,2.02386,0,0,1-1.27265-.44312L35,57.54541V42.45453L49.76984,29.56628a2.02311,2.02311,0,0,1,1.27246-.443,2.14327,2.14327,0,0,1,1.39068.509A1.58246,1.58246,0,0,1,53,30.856V69.144A1.5822,1.5822,0,0,1,52.43292,70.36749ZM25.48694,56.5022A2.06658,2.06658,0,0,1,25,55.14307V44.85693a2.06662,2.06662,0,0,1,.48694-1.35919A1.34791,1.34791,0,0,1,26.5,42.99994H33V57H26.5A1.34791,1.34791,0,0,1,25.48694,56.5022Zm29.513-3.68726V47.185a2.981,2.981,0,0,1,0,5.62994Z" fill="green"/>
<path d="M61.85358,42.05554a1,1,0,1,0-1.41419,1.41425h-.00006a9.364,9.364,0,0,1,0,13.242A1,1,0,1,0,61.85364,58.126a11.36438,11.36438,0,0,0-.00006-16.0705Z" fill="green"/>
<path d="M66.32477,38.58435a1,1,0,1,0-1.41419,1.41425h-.00006a14.27257,14.27257,0,0,1,0,20.18438,1,1,0,1,0,1.41431,1.41425,16.273,16.273,0,0,0-.00006-23.01288Z" fill="green"/>
<path d="M69.38165,35.11328a.9999.9999,0,0,0,.00019,1.41419h-.00007a19.18174,19.18174,0,0,1-.00006,27.12719A1,1,0,1,0,70.796,65.06891,21.18213,21.18213,0,0,0,70.7959,35.1131,1,1,0,0,0,69.38165,35.11328Z" fill="green"/>
</svg>